# xmcd CD database file
#
# Track frame offsets:
#	150
#	14844
#	30713
#	45330
#	58895
#	73757
#	87641
#	102035
#	115118
#	130425
#	148040
#	178679
#
# Disc length: 2656 seconds
#
# Revision: 0
# Processed by: cddbd v1.5.2PL0 Copyright (c) Steve Scherf et al.
# Submitted via: CDex 1.70beta2
#
DISCID=b00a5e0c
DTITLE=Div - Lounge zum Lesen
DYEAR=2007
DGENRE=Jazz
TTITLE0=Walk On The Light Side - Jean-Marc Levier
TTITLE1=Moonlight And Melodies - Jean-Marc Levier
TTITLE2=Where Do We Go - Jean-Marc Levier
TTITLE3=When You Leave - Jean-Marc Levier
TTITLE4=A Short Romance - Jean-Marc Levier
TTITLE5=Evening Lounge - Jean-Marc Levier
TTITLE6=Never Loose Your Imagination - Jean-Marc Levier
TTITLE7=Good Day, Good Night - Jean-Marc Levier
TTITLE8=Birth of Cool - Beating Pulse Band
TTITLE9=Moonlightning - Clay Smith
TTITLE10=About Jammin - The Jimmy Live Quartet
TTITLE11=Time Regained - Clay Smith
EXTD=YEAR: 2007
EXTT0=
EXTT1=
EXTT2=
EXTT3=
EXTT4=
EXTT5=
EXTT6=
EXTT7=
EXTT8=
EXTT9=
EXTT10=
EXTT11=
PLAYORDER=
